<?xml version="1.0" encoding="UTF-8" standalone="no"?>
<!-- Created with Inkscape (http://www.inkscape.org/) -->

<svg
   width="850"
   height="850"
   viewBox="0 0 850 850"
   version="1.1"
   id="svg1"
   xml:space="preserve"
   inkscape:version="1.4.2 (ebf0e940d0, 2025-05-08)"
   sodipodi:docname="LBR_CM_rev2_TRIM.svg"
   inkscape:export-filename="LBR_CM_rev2_3000px-NoAlpha.png"
   inkscape:export-xdpi="288"
   inkscape:export-ydpi="288"
   xmlns:inkscape="http://www.inkscape.org/namespaces/inkscape"
   xmlns:sodipodi="http://sodipodi.sourceforge.net/DTD/sodipodi-0.dtd"
   xmlns="http://www.w3.org/2000/svg"
   xmlns:svg="http://www.w3.org/2000/svg"><sodipodi:namedview
     id="namedview1"
     pagecolor="#ffffff"
     bordercolor="#000000"
     borderopacity="0.25"
     inkscape:showpageshadow="2"
     inkscape:pageopacity="0.0"
     inkscape:pagecheckerboard="0"
     inkscape:deskcolor="#d1d1d1"
     inkscape:document-units="px"
     inkscape:zoom="0.71535496"
     inkscape:cx="322.21766"
     inkscape:cy="420.07118"
     inkscape:window-width="1920"
     inkscape:window-height="1012"
     inkscape:window-x="2944"
     inkscape:window-y="1080"
     inkscape:window-maximized="1"
     inkscape:current-layer="layer2"
     inkscape:export-bgcolor="#ffffffff" /><defs
     id="defs1"><clipPath
       clipPathUnits="userSpaceOnUse"
       id="clipPath1"><rect
         style="fill:#000000;stroke-width:10;stroke-miterlimit:10;paint-order:stroke fill markers"
         id="rect2"
         width="213.18089"
         height="213.18089"
         x="374.63919"
         y="715.72864" /></clipPath><clipPath
       clipPathUnits="userSpaceOnUse"
       id="clipPath3"><rect
         style="fill:#000000;stroke-width:10;stroke-miterlimit:10;paint-order:stroke fill markers"
         id="rect4"
         width="464.5773"
         height="328.22665"
         x="1303.5273"
         y="25.453987" /></clipPath></defs><g
     inkscape:groupmode="layer"
     id="layer2"
     inkscape:label="Main"
     style="display:inline;opacity:1"
     transform="translate(-104.81185,-67.962283)"><path
       style="display:inline;fill:#6c7c04;fill-opacity:1;stroke:none;stroke-width:1;stroke-miterlimit:10;stroke-dasharray:none;stroke-opacity:1;paint-order:stroke fill markers"
       d="m 468.73754,866.30046 c -4.87087,9.62714 23.90032,38.12797 86.93067,36.74775 95.75667,-2.09685 167.12366,-57.35338 220.17043,-125.81167 48.78016,-62.9521 79.77538,-176.26144 83.0659,-267.70238 2.35505,-65.44494 -6.11697,-145.91546 -0.58936,-192.20917 11.18326,-93.6598 29.01291,-161.66732 47.52885,-197.8039 9.23348,-18.0205 21.10974,-28.124109 15.72646,-32.850828 -6.72616,-5.905823 -20.61913,2.096861 -33.2003,18.871748 -12.58117,16.77489 -66.4006,96.8051 -73.73962,231.00421 -19.5707,-43.33513 -89.48062,-114.7132 -143.99901,-109.12157 -54.5184,5.59163 -21.98515,25.46304 22.73054,51.45789 82.42686,47.91772 93.53135,165.78754 88.13842,275.49314 -10.33529,-40.54181 -42.5059,-93.06054 -78.50812,-120.19095 -27.35734,-20.61584 -62.11393,-19.33043 -59.88472,-5.59162 2.07224,12.77139 24.77961,10.07778 47.04917,47.17511 21.3819,35.61864 67.22226,123.72299 66.26614,182.588 -1.05416,64.90054 -28.502,120.41604 -76.19199,155.94545 -59.68855,44.46844 -112.29541,51.57476 -137.99546,51.66687 -27.7183,0.0993 -69.40813,-7.75161 -73.498,0.33192 z"
       id="path2"
       sodipodi:nodetypes="sssssssscsscsssssss" /><path
       style="display:inline;fill:#ffe95c;fill-opacity:1;stroke:none;stroke-width:1;stroke-miterlimit:10;stroke-dasharray:none;stroke-opacity:1;paint-order:stroke fill markers"
       d="m 465.32331,560.73048 -103.14535,20.98919 76.81466,74.75292 -17.52352,110.9786 97.39956,-48.6321 96.05557,43.2452 -12.47579,-109.07191 74.83772,-76.35555 -104.1441,-16.14619 -53.81944,-101.97699 z"
       id="path3"
       sodipodi:nodetypes="ccccccccccc" /><path
       style="display:inline;fill:#f79717;fill-opacity:1;stroke:none;stroke-width:1;stroke-miterlimit:10;stroke-dasharray:none;stroke-opacity:1;paint-order:stroke fill markers"
       d="m 703.14745,237.29479 c -10.99839,-25.14399 -37.99294,-30.0987 -70.57376,-32.13184 -54.9849,-3.4312 -99.42621,9.12519 -139.11235,24.44335 -35.68239,13.77278 -59.0616,30.05501 -65.70165,53.12048 -38.44246,6.64007 -73.73962,26.21077 -101.3483,46.82991 -28.93157,21.60711 -43.6846,39.84036 -51.37309,68.84693 -28.30763,21.3181 -46.13096,35.29717 -65.70166,64.65323 -19.5707,29.35605 -24.46338,63.25531 -17.12437,75.83648 -21.66756,11.53273 -38.34653,44.98014 -42.90085,69.53861 -3.40997,18.38781 4.4584,36.08818 14.2262,45.82387 -10.79866,14.90031 -28.79475,51.27916 -29.3385,74.75293 -0.67852,29.292 9.78535,46.13095 23.76442,59.76054 -3.84424,21.31809 -10.83377,56.26578 4.89269,84.22393 14.87755,26.44899 38.79193,39.14141 70.9438,25.5118 28.27098,-11.98444 46.82989,-53.12048 35.99611,-119.52109 12.93065,-8.73691 34.66692,-31.14861 41.58775,-61.15844 7.7208,-33.47858 3.14529,-63.95427 1.04843,-87.36922 10.24905,-11.98962 22.53647,-27.2427 31.03589,-52.91474 7.36288,-22.23921 9.53944,-49.55401 13.69715,-75.34327 20.61913,-11.88221 36.55848,-23.63258 46.48042,-39.84035 8.65863,-14.14411 24.46338,-42.28671 30.05501,-64.65323 23.41495,2.44634 50.21758,-6.19966 69.54589,-17.12437 16.07595,-9.0864 24.81287,-20.61913 35.29717,-37.39402 10.83379,6.29059 40.53932,12.58117 66.4006,9.78535 45.17415,-4.8837 62.39874,-22.27242 78.6323,-42.63618 16.97147,-21.28939 30.23693,-48.65605 19.5707,-73.04066 z"
       id="path4"
       sodipodi:nodetypes="ssscscscscscsscscscscscsss" /><path
       style="fill:#ffc24d;fill-opacity:1;stroke:none;stroke-width:1;stroke-miterlimit:10;stroke-dasharray:none;stroke-opacity:1;paint-order:stroke fill markers"
       d="m 669.09315,230.40761 c -53.63228,-32.96047 -211.62793,21.21573 -217.56904,49.52336 16.42541,-0.34948 27.60868,9.0864 52.77101,7.33902 24.36276,-28.72792 86.74955,-51.57055 164.79803,-56.86238 z"
       id="path5"
       sodipodi:nodetypes="cccc" /><path
       style="fill:#ffc24d;fill-opacity:1;stroke:none;stroke-width:1;stroke-miterlimit:10;stroke-dasharray:none;stroke-opacity:1;paint-order:stroke fill markers"
       d="m 602.32338,255.11811 c -38.99047,11.83617 -82.65128,25.51181 -83.35023,45.43199 -0.70185,20.00267 63.60478,40.88879 99.25142,28.30763 35.64664,-12.58117 66.75009,-58.53737 63.60479,-84.74814 -18.1728,0 -52.22353,2.7265 -79.50598,11.00852 z"
       id="path6"
       sodipodi:nodetypes="ssscs" /><path
       style="fill:#ffc24d;fill-opacity:1;stroke:none;stroke-width:1;stroke-miterlimit:10;stroke-dasharray:none;stroke-opacity:1;paint-order:stroke fill markers"
       d="m 464.45475,298.45324 c -21.66756,-5.59163 -45.08251,-3.49476 -81.07862,13.28013 -28.72656,13.38713 -100.29987,70.94379 -86.3208,82.12705 13.97908,11.18326 78.98178,-28.30762 95.05771,-45.08251 16.07594,-16.77489 53.46996,-42.98566 72.34171,-50.32467 z"
       id="path7"
       sodipodi:nodetypes="csssc" /><path
       style="fill:#ffc24d;fill-opacity:1;stroke:none;stroke-width:1;stroke-miterlimit:10;stroke-dasharray:none;stroke-opacity:1;paint-order:stroke fill markers"
       d="m 500.45087,303.34592 c -19.57071,1.3979 -78.23637,30.67087 -84.92288,46.8299 -4.19372,10.13483 -0.57847,29.00657 21.66757,30.055 38.74892,1.8262 69.89537,-19.22122 85.27236,-46.13094 -10.48431,-6.64006 -19.22123,-20.26966 -22.01705,-30.75396 z"
       id="path8"
       sodipodi:nodetypes="csscc" /><path
       style="fill:#ffc24d;fill-opacity:1;stroke:none;stroke-width:1;stroke-miterlimit:10;stroke-dasharray:none;stroke-opacity:1;paint-order:stroke fill markers"
       d="m 397.70467,364.50437 c -17.47384,17.12437 -46.82989,27.60867 -69.19641,49.97519 -20.4317,20.4317 -31.45292,65.35218 -6.29059,70.94381 25.16234,5.59163 54.86787,-15.02751 70.24485,-38.09298 15.37699,-23.06547 20.61913,-33.54978 25.86129,-54.51839 -11.88221,-4.89268 -19.22123,-16.07594 -20.61914,-28.30763 z"
       id="path9"
       sodipodi:nodetypes="cssscc" /><path
       style="fill:#ffc24d;fill-opacity:1;stroke:none;stroke-width:1;stroke-miterlimit:10;stroke-dasharray:none;stroke-opacity:1;paint-order:stroke fill markers"
       d="m 308.2386,413.43113 c -11.18327,2.44634 -22.36652,3.84424 -29.00658,-1.04843 -33.54978,22.716 -81.77759,86.32078 -69.19642,110.78416 12.58116,24.46338 34.94767,13.97908 48.92675,-9.78535 9.47719,-16.11121 25.29962,-30.787 33.21221,-42.08542 0.13003,-18.6561 8.71286,-44.23839 16.06404,-57.86496 z"
       id="path10"
       sodipodi:nodetypes="ccsscc" /><path
       style="fill:#ffc24d;fill-opacity:1;stroke:none;stroke-width:1;stroke-miterlimit:10;stroke-dasharray:none;stroke-opacity:1;paint-order:stroke fill markers"
       d="m 298.45325,487.8697 c -20.26966,16.77489 -39.96266,85.99842 -34.94769,108.33783 3.84424,17.12437 17.56162,34.49487 37.04454,16.07594 26.39785,-24.95622 37.74351,-68.14799 39.84037,-109.38627 -16.42541,2.44635 -33.20031,-2.44633 -41.93722,-15.0275 z"
       id="path11"
       sodipodi:nodetypes="csscc" /><path
       style="fill:#ffc24d;fill-opacity:1;stroke:none;stroke-width:1;stroke-miterlimit:10;stroke-dasharray:none;stroke-opacity:1;paint-order:stroke fill markers"
       d="m 251.97282,548.3292 c -14.32855,10.83378 -39.7804,15.91362 -49.56575,3.33246 -24.4107,13.82704 -45.84871,66.36032 -31.17068,83.13521 18.88767,21.5859 58.60674,11.70748 76.89218,-28.80399 -4.54319,-12.58116 -5.59162,-29.70553 3.84425,-57.66368 z"
       id="path12"
       sodipodi:nodetypes="ccscc" /><path
       style="fill:#ffc24d;fill-opacity:1;stroke:none;stroke-width:1;stroke-miterlimit:10;stroke-dasharray:none;stroke-opacity:1;paint-order:stroke fill markers"
       d="m 177.88373,660.51127 c -5.59163,7.68849 -33.01742,64.21633 -23.06548,87.36922 11.72129,27.26921 36.69507,27.08445 56.61526,-4.19372 -4.5432,-21.66757 -10.13483,-41.23827 -1.04843,-78.98177 -15.0275,4.5432 -24.81287,-0.34949 -32.50135,-4.19373 z"
       id="path13"
       sodipodi:nodetypes="csccc" /><path
       style="fill:#ffc24d;fill-opacity:1;stroke:none;stroke-width:1;stroke-miterlimit:10;stroke-dasharray:none;stroke-opacity:1;paint-order:stroke fill markers"
       d="m 220.86939,761.16061 c -14.32856,21.31808 -30.75397,27.60867 -44.73305,30.40449 -12.40314,25.85809 0.28016,89.73336 35.29717,87.01974 27.95133,-2.16608 46.82989,-39.49089 41.58775,-93.65981 -9.43588,-4.54319 -20.61914,-8.03797 -32.15187,-23.76442 z"
       id="path14"
       sodipodi:nodetypes="ccscc" /><path
       style="fill:#ffc24d;fill-opacity:1;stroke:none;stroke-width:1;stroke-miterlimit:10;stroke-dasharray:none;stroke-opacity:1;paint-order:stroke fill markers"
       d="m 258.26341,625.91306 c -7.68849,21.66757 -20.61913,26.90973 -31.8024,36.69507 -5.85314,33.75132 -3.14529,98.55248 26.21076,96.45562 27.50982,-1.96499 54.5184,-57.31421 43.68461,-118.12318 -15.0275,9.43588 -34.24873,-2.2716 -38.09297,-15.02751 z"
       id="path15"
       sodipodi:nodetypes="ccscc" /></g></svg>
